# xmcd
#
# Track frame offsets:
#	150
#	15075
#	38098
#	57666
#	72480
#	92701
#	98593
#	117528
#	136697
#	146275
#	166770
#	186967
#	197985
#	212888
#	227575
#	241793
#	260190
#	279139
#	295430
#	314040
#	329004
#	341482
#
# Disc length: 4775 seconds
#
# Revision: 0
# Processed by: cddbd v1.4PL0 Copyright (c) Steve Scherf et al.
# Submitted via: audiograbber 1.82.01
#
DISCID=4c12a516
DTITLE=[Gagarin] - Рок [CD2)
DYEAR=2003
DGENRE=
TTITLE0=Шнуров - Никого не жалко
TTITLE1=Second Hand Band - Groove Of The Nation
TTITLE2=Ботаника - Под Луганском родился
TTITLE3=Колібаба - Джигидам
TTITLE4=Ляпис Трубецкой - Ласточки
TTITLE5=Мельница - Тарантелла
TTITLE6=Вадим Самойлови Полуострова - Накраю неба
TTITLE7=Ногу свело - Из Алма-Аты
TTITLE8=Ленинград - Пролежни
TTITLE9=Мата-Хари - Анна (охотник за золотом)
TTITLE10=Ленинград - Злаяпуля
TTITLE11=Шнуров - Мобильник
TTITLE12=Мертвые дельфины - На моей луне
TTITLE13=Сурганова - Не тобой болеет сердце
TTITLE14=Пятница - Солдат
TTITLE15=Гарик Сукачев - Колечки
TTITLE16=Кирпичи - Сила ума
TTITLE17=Слот - 2 капли
TTITLE18=Chupacabra - Если ты захочешь
TTITLE19=DJ Слон - Бригада (Hip-HopMix)
TTITLE20=Шнуров - Тема дороги
TTITLE21=Шнуров - Привет Морриконе
EXTD=
EXTT0=
EXTT1=
EXTT2=
EXTT3=
EXTT4=
EXTT5=
EXTT6=
EXTT7=
EXTT8=
EXTT9=
EXTT10=
EXTT11=
EXTT12=
EXTT13=
EXTT14=
EXTT15=
EXTT16=
EXTT17=
EXTT18=
EXTT19=
EXTT20=
EXTT21=
PLAYORDER=
